<?xml version="1.0" encoding="UTF-8"?><svg id="Calque_1" xmlns="http://www.w3.org/2000/svg" viewBox="0 0 2082 571.89"><defs><style>.cls-1{fill-rule:evenodd;}.cls-1,.cls-2{fill:#ff0059;stroke-width:0px;}</style></defs><path class="cls-1" d="M584.04,213.77c-4.74-21.79-12.67-42.19-24.29-59.33-29.23-43.28-75.71-50.37-123.05-35.73-38.21,11.83-123.05,21.53-154.36.25-11.4-7.73-11.11-16.42,2.44-24.58,22.84-13.76,77.78-22.2,137.11-4.12,0,0-26.26-17.1-68.19-25.73-18.37-3.79-42.05-5.27-63.94-4.1-207.15,11.32-238.86,271.23-106.28,395.78,79.89,75.04,203.23,80.02,293.81,21.16,87.36-56.75,128.83-162.02,106.75-263.61ZM424.79,315.22l-111.42,64.31c-7.77,4.49-17.49-1.11-17.49-10.09v-128.65c0-8.98,9.72-14.6,17.49-10.11l111.42,64.33c7.79,4.49,7.79,15.73,0,20.23Z"/><path class="cls-2" d="M849.72,374.66c-21.24,25.5-54.27,39.65-92.99,39.65-72.68,0-122.72-48.61-122.72-118.95s50.04-118.95,122.72-118.95c33.52,0,62.3,10.39,85.43,31.63,6.13,6.13,9.45,13.69,9.45,22.18,0,17.94-11.79,29.73-29.73,29.73-7.56,0-14.15-2.36-19.82-7.09-13.22-11.32-28.33-17.47-45.31-17.47-33.52,0-56.63,24.07-56.63,59.93s23.13,59.95,56.63,59.95c20.3,0,35.39-8.02,47.21-20.3,5.66-6.13,13.22-9.45,21.71-9.45,18.41,0,30.67,12.28,30.67,30.2,0,7.09-2.36,13.69-6.6,18.88l-.02.06Z"/><path class="cls-2" d="M1105.36,281.21v95.82c0,21.24-12.28,34.46-32.57,34.46s-32.09-13.22-32.09-34.46v-88.26c0-34.93-16.04-53.33-47.2-53.33s-51.44,22.18-51.44,59.47v82.13c0,21.24-12.28,34.46-32.56,34.46s-32.09-13.22-32.09-34.46V109.88c0-21.24,12.28-34.46,32.09-34.46s32.56,13.22,32.56,34.46v93.92h.94c15.11-17.47,37.76-27.37,67.49-27.37,61.83,0,94.86,36.82,94.86,104.78h.02Z"/><path class="cls-2" d="M1256.21,414.31c-75.04,0-125.08-48.14-125.08-118.95s50.03-118.95,122.71-118.95c65.13,0,115.63,47.21,115.63,101.48v3.77c0,20.3-13.21,33.52-33.03,33.52h-139.23c7.08,26.9,28.32,43.42,58.99,43.42,20.29,0,34.93-6.13,49.08-19.35,5.66-5.66,13.21-8.96,21.23-8.96,16.99,0,28.33,10.86,28.33,27.84,0,7.09-2.36,13.22-6.62,18.88-20.77,24.07-52.4,37.29-92.03,37.29v.02ZM1197.21,270.82h110.92c-5.19-23.6-27.37-38.71-54.28-38.71s-51.44,15.11-56.63,38.71h-.02Z"/><path class="cls-2" d="M1552.78,209.93c0,19.82-13.21,32.1-32.09,32.1-41.06,0-64.19,18.41-64.19,67.49v67.49c0,21.24-12.28,34.46-32.56,34.46s-32.1-13.22-32.1-34.46v-163.77c0-21.24,12.28-33.99,32.1-33.99s32.09,12.28,32.56,32.09h.94c13.21-22.18,34.46-33.52,63.25-33.52,18.88,0,32.09,11.79,32.09,32.09v.02Z"/><path class="cls-2" d="M1740.38,209.93c0,19.82-13.22,32.1-32.09,32.1-41.06,0-64.19,18.41-64.19,67.49v67.49c0,21.24-12.28,34.46-32.56,34.46s-32.1-13.22-32.1-34.46v-163.77c0-21.24,12.28-33.99,32.1-33.99s32.09,12.28,32.56,32.09h.94c13.21-22.18,34.46-33.52,63.25-33.52,18.87,0,32.09,11.79,32.09,32.09v.02Z"/><path class="cls-2" d="M1986.06,213.23v175.12c0,70.79-44.37,113.76-117.53,113.76-43.42,0-78.34-12.28-95.81-34.93-4.25-5.19-6.62-11.79-6.62-19.35,0-18.41,11.79-30.2,30.67-30.2,7.56,0,12.75,2.36,17.47,6.13,16.51,14.15,30.69,19.82,52.86,19.82,33.03,0,54.28-20.77,54.28-52.4v-15.11h-.94c-15.11,17.94-37.76,27.84-67.02,27.84-60.89,0-93.92-36.82-93.92-104.78v-85.9c0-21.24,12.27-33.99,32.09-33.99s32.56,12.75,32.56,33.99v78.34c0,34.46,16.05,53.34,46.25,53.34,32.09,0,50.97-22.18,50.97-59.47v-72.21c0-21.24,12.27-33.99,32.56-33.99s32.1,12.75,32.1,33.99h.02Z"/></svg>